<?xml version="1.0" encoding="UTF-8" standalone="no"?>
<!DOCTYPE svg PUBLIC "-//W3C//DTD SVG 1.1//EN"
 "http://www.w3.org/Graphics/SVG/1.1/DTD/svg11.dtd">
<!-- Generated by graphviz version 2.40.1 (20161225.0304)
 -->
<!-- Title: %3 Pages: 1 -->
<svg width="668pt" height="148pt"
 viewBox="0.00 0.00 668.00 148.00" xmlns="http://www.w3.org/2000/svg" xmlns:xlink="http://www.w3.org/1999/xlink">
<g id="graph0" class="graph" transform="scale(1 1) rotate(0) translate(4 144)">
<title>%3</title>
<polygon fill="#ffffff" stroke="transparent" points="-4,4 -4,-144 664,-144 664,4 -4,4"/>
<text text-anchor="middle" x="330" y="-7.8" font-family="Courier,monospace" font-size="14.00" fill="#000000">Huffman&#45;tree for: &quot;aaaaaaaaaaaaeeeeeeeeeeeeeeeeeeeeeeeeeeeeeeeeeeeeeeeeeei&quot;...</text>
<!-- N0x805acd0 -->
<g id="node1" class="node">
<title>N0x805acd0</title>
<polygon fill="#f5f5dc" stroke="#000000" points="640.1344,-109 586.1344,-109 586.1344,-73 640.1344,-73 640.1344,-109"/>
<text text-anchor="middle" x="613.1344" y="-87.3" font-family="Times-Roman,serif" font-size="14.00" fill="#556b2f">1</text>
</g>
<!-- N0x805ac88 -->
<g id="node2" class="node">
<title>N0x805ac88</title>
<ellipse fill="#556b2f" stroke="#000000" cx="496.9885" cy="-118" rx="46.2923" ry="18"/>
<text text-anchor="middle" x="496.9885" y="-114.3" font-family="Times-Roman,serif" font-size="14.00" fill="#f5f5dc">&#39;e&#39; (21/50)</text>
</g>
<!-- N0x805acd0&#45;&gt;N0x805ac88 -->
<g id="edge1" class="edge">
<title>N0x805acd0&#45;&gt;N0x805ac88</title>
<path fill="none" stroke="#000000" d="M585.9033,-97.3303C574.2556,-100.038 560.276,-103.2878 546.8877,-106.4001"/>
<polygon fill="#000000" stroke="#000000" points="545.7611,-103.0686 536.8133,-108.7421 547.3461,-109.8868 545.7611,-103.0686"/>
<text text-anchor="middle" x="564.6344" y="-105.8" font-family="Times-Roman,serif" font-size="14.00" fill="#ff0000">0</text>
</g>
<!-- N0x805acb8 -->
<g id="node3" class="node">
<title>N0x805acb8</title>
<polygon fill="#f5f5dc" stroke="#000000" points="523.9885,-82 469.9885,-82 469.9885,-46 523.9885,-46 523.9885,-82"/>
<text text-anchor="middle" x="496.9885" y="-60.3" font-family="Times-Roman,serif" font-size="14.00" fill="#556b2f">29/50</text>
</g>
<!-- N0x805acd0&#45;&gt;N0x805acb8 -->
<g id="edge2" class="edge">
<title>N0x805acd0&#45;&gt;N0x805acb8</title>
<path fill="none" stroke="#000000" d="M585.9033,-84.6697C570.4673,-81.0814 550.9358,-76.5409 534.1128,-72.6302"/>
<polygon fill="#000000" stroke="#000000" points="534.5817,-69.1459 524.0489,-70.2906 532.9967,-75.9641 534.5817,-69.1459"/>
<text text-anchor="middle" x="564.6344" y="-82.8" font-family="Times-Roman,serif" font-size="14.00" fill="#0000ff">1</text>
</g>
<!-- N0x805aca0 -->
<g id="node4" class="node">
<title>N0x805aca0</title>
<polygon fill="#f5f5dc" stroke="#000000" points="385.5963,-117 331.5963,-117 331.5963,-81 385.5963,-81 385.5963,-117"/>
<text text-anchor="middle" x="358.5963" y="-95.3" font-family="Times-Roman,serif" font-size="14.00" fill="#556b2f">7/25</text>
</g>
<!-- N0x805acb8&#45;&gt;N0x805aca0 -->
<g id="edge3" class="edge">
<title>N0x805acb8&#45;&gt;N0x805aca0</title>
<path fill="none" stroke="#000000" d="M469.9765,-70.8314C448.8719,-76.1689 419.3013,-83.6474 395.9326,-89.5575"/>
<polygon fill="#000000" stroke="#000000" points="394.8497,-86.2211 386.0131,-92.0662 396.566,-93.0074 394.8497,-86.2211"/>
<text text-anchor="middle" x="425.8426" y="-86.8" font-family="Times-Roman,serif" font-size="14.00" fill="#ff0000">10</text>
</g>
<!-- N0x805ac40 -->
<g id="node9" class="node">
<title>N0x805ac40</title>
<ellipse fill="#556b2f" stroke="#000000" cx="358.5963" cy="-45" rx="42.4939" ry="18"/>
<text text-anchor="middle" x="358.5963" y="-41.3" font-family="Times-Roman,serif" font-size="14.00" fill="#f5f5dc">&#39;o&#39; (3/10)</text>
</g>
<!-- N0x805acb8&#45;&gt;N0x805ac40 -->
<g id="edge8" class="edge">
<title>N0x805acb8&#45;&gt;N0x805ac40</title>
<path fill="none" stroke="#000000" d="M469.9765,-60.2915C452.6034,-57.9063 429.4934,-54.7335 408.8286,-51.8964"/>
<polygon fill="#000000" stroke="#000000" points="409.2995,-48.4283 398.9163,-50.5356 408.3473,-55.3633 409.2995,-48.4283"/>
<text text-anchor="middle" x="425.8426" y="-57.8" font-family="Times-Roman,serif" font-size="14.00" fill="#0000ff">11</text>
</g>
<!-- N0x805ac70 -->
<g id="node5" class="node">
<title>N0x805ac70</title>
<ellipse fill="#556b2f" stroke="#000000" cx="217.7537" cy="-122" rx="41.6928" ry="18"/>
<text text-anchor="middle" x="217.7537" y="-118.3" font-family="Times-Roman,serif" font-size="14.00" fill="#f5f5dc">&#39;a&#39; (3/25)</text>
</g>
<!-- N0x805aca0&#45;&gt;N0x805ac70 -->
<g id="edge4" class="edge">
<title>N0x805aca0&#45;&gt;N0x805ac70</title>
<path fill="none" stroke="#000000" d="M331.4404,-103.4346C313.1535,-106.4209 288.5115,-110.4451 266.8443,-113.9834"/>
<polygon fill="#000000" stroke="#000000" points="266.1161,-110.5558 256.8109,-115.6219 267.2443,-117.4643 266.1161,-110.5558"/>
<text text-anchor="middle" x="287.8501" y="-114.8" font-family="Times-Roman,serif" font-size="14.00" fill="#ff0000">100</text>
</g>
<!-- N0x805ac58 -->
<g id="node6" class="node">
<title>N0x805ac58</title>
<polygon fill="#f5f5dc" stroke="#000000" points="244.7537,-86 190.7537,-86 190.7537,-50 244.7537,-50 244.7537,-86"/>
<text text-anchor="middle" x="217.7537" y="-64.3" font-family="Times-Roman,serif" font-size="14.00" fill="#556b2f">4/25</text>
</g>
<!-- N0x805aca0&#45;&gt;N0x805ac58 -->
<g id="edge5" class="edge">
<title>N0x805aca0&#45;&gt;N0x805ac58</title>
<path fill="none" stroke="#000000" d="M331.4404,-93.0229C309.6179,-88.2197 278.7453,-81.4245 254.678,-76.1272"/>
<polygon fill="#000000" stroke="#000000" points="255.3449,-72.6902 244.8262,-73.9588 253.8401,-79.5266 255.3449,-72.6902"/>
<text text-anchor="middle" x="287.8501" y="-88.8" font-family="Times-Roman,serif" font-size="14.00" fill="#0000ff">101</text>
</g>
<!-- N0x805aa58 -->
<g id="node7" class="node">
<title>N0x805aa58</title>
<ellipse fill="#556b2f" stroke="#000000" cx="66.0115" cy="-95" rx="46.2923" ry="18"/>
<text text-anchor="middle" x="66.0115" y="-91.3" font-family="Times-Roman,serif" font-size="14.00" fill="#f5f5dc">&#39;u&#39; (7/100)</text>
</g>
<!-- N0x805ac58&#45;&gt;N0x805aa58 -->
<g id="edge6" class="edge">
<title>N0x805ac58&#45;&gt;N0x805aa58</title>
<path fill="none" stroke="#000000" d="M190.6253,-72.8271C170.4707,-76.4132 142.3582,-81.4154 117.9347,-85.7611"/>
<polygon fill="#000000" stroke="#000000" points="117.3125,-82.3168 108.0803,-87.5146 118.5388,-89.2085 117.3125,-82.3168"/>
<text text-anchor="middle" x="144.1574" y="-86.8" font-family="Times-Roman,serif" font-size="14.00" fill="#ff0000">1010</text>
</g>
<!-- N0x805ac28 -->
<g id="node8" class="node">
<title>N0x805ac28</title>
<ellipse fill="#556b2f" stroke="#000000" cx="66.0115" cy="-41" rx="44.393" ry="18"/>
<text text-anchor="middle" x="66.0115" y="-37.3" font-family="Times-Roman,serif" font-size="14.00" fill="#f5f5dc">&#39;i&#39; (9/100)</text>
</g>
<!-- N0x805ac58&#45;&gt;N0x805ac28 -->
<g id="edge7" class="edge">
<title>N0x805ac58&#45;&gt;N0x805ac28</title>
<path fill="none" stroke="#000000" d="M190.6253,-63.1729C170.0961,-59.5201 141.3103,-54.3982 116.5767,-49.9972"/>
<polygon fill="#000000" stroke="#000000" points="117.075,-46.531 106.6165,-48.225 115.8487,-53.4227 117.075,-46.531"/>
<text text-anchor="middle" x="144.1574" y="-60.8" font-family="Times-Roman,serif" font-size="14.00" fill="#0000ff">1011</text>
</g>
</g>
</svg>
